Coordinates
version=1
nRows=16
nColumns=33
inDegrees=yes

Units are S.I. units (second, meters, Newtons, ...)
Angles are in degrees.

endheader
time	ground_thorax_rot_x	ground_thorax_rot_y	ground_thorax_rot_z	ground_thorax_tx	ground_thorax_ty	ground_thorax_tz	clav_prot_r	clav_elev_r	scapula_abduction_r	scapula_elevation_r	scapula_upward_rot_r	scapula_winging_r	shoulder_elv_r	plane_of_elev_r	axial_rot_r	elbow_flexion_r	pro_sup_r	wrist_flex_r	wrist_dev_r	clav_prot_l	clav_elev_l	scapula_abduction_l	scapula_elevation_l	scapula_upward_rot_l	scapula_winging_l	shoulder_elv_l	plane_of_elev_l	axial_rot_l	elbow_flexion_l	pro_sup_l	wrist_flex_l	wrist_dev_l
      4.97000000	    -90.00000000	     90.00000000	    -90.00000000	    -87.75047288	    870.25160223	    -38.98918029	     30.46372276	     33.36326872	     45.00000000	     45.00000000	     15.54504718	   1785.04000509	    110.58270577	     32.70131300	    -26.22096825	   2517.96520941	    159.64433389	     15.96202579	     14.70779395	    -45.00000000	     19.86942278	     35.26576245	    -16.46650485	     45.00000000	   4424.85994015	  -4206.71327962	     24.87567794	   -177.43423697	   1790.99380038	     47.41655843	     12.26357833	    -23.24415958
      4.98000000	    -90.00000000	     90.00000000	    -90.00000000	    -87.44036833	    869.70924019	    -39.05175145	     30.69273764	     33.65127585	     45.00000000	     45.00000000	     15.66654087	   1784.71223682	    110.43555324	     32.85320956	    -26.57530278	   2518.14993586	    160.65630245	     16.49995390	     14.82408199	    -45.00000000	     20.47715649	     35.26291488	    -16.71242157	     45.00000000	   4425.09368298	  -4206.79629075	     25.02460276	   -177.78782391	   1790.97238710	     47.24138463	     12.13577697	    -23.37093617
      4.99000000	    -90.00000000	     90.00000000	    -90.00000000	    -87.08956740	    869.04933840	    -39.10766881	     30.52248377	     33.49032367	     45.00000000	     45.00000000	     15.61376993	   1784.95217310	    110.55602685	     32.52505321	    -26.64293105	   2518.00524917	    161.79501169	     16.31243714	     14.53481436	    -45.00000000	     20.30775055	     35.27109359	    -16.73187267	     45.00000000	   4424.99558860	  -4206.73117223	     24.95339590	   -177.55468269	   1790.99896301	     47.29240011	     12.26419861	    -23.44479927
      5.00000000	    -90.00000000	     90.00000000	    -90.00000000	    -86.69870179	    868.28785826	    -39.15904498	     30.59207604	     33.62471135	     45.00000000	     45.00000000	     15.73368076	   1784.48717632	    110.41332733	     32.85027558	    -26.98787662	   2518.22867457	    162.77429454	     17.01619303	     14.69297286	    -45.00000000	     20.63766510	     35.27414070	    -16.85613198	     45.00000000	   4425.08320121	  -4206.68604172	     25.04512112	   -177.55382160	   1790.94836478	     47.35561166	     11.99037793	    -23.49924381
      5.01000000	    -90.00000000	     90.00000000	    -90.00000000	    -86.26916195	    867.44748112	    -39.21014178	     30.48965529	     33.59309581	     45.00000000	     45.00000000	     15.77372678	   1784.71153309	    110.45097916	     32.41884772	    -27.12936272	   2518.09327125	    163.78790913	     16.65267070	     14.30607228	    -45.00000000	     20.63880899	     35.27985234	    -16.95634078	     45.00000000	   4425.11237292	  -4206.78085814	     24.93708441	   -177.47206728	   1790.95081625	     47.52731864	     12.13729616	    -23.61095684
      5.02000000	    -90.00000000	     90.00000000	    -90.00000000	    -85.79797428	    866.54652931	    -39.26688917	     30.53096976	     33.64435177	     45.00000000	     45.00000000	     15.83918986	   1783.95840638	    110.31758661	     32.99882003	    -27.48598854	   2518.34455675	    164.53900593	     17.63705405	     14.67310317	    -45.00000000	     20.80222239	     35.30080632	    -16.88799361	     45.00000000	   4425.13212371	  -4206.59728797	     25.04004346	   -177.37842865	   1790.96782687	     47.60637701	     11.74484005	    -23.61682584
      5.03000000	    -90.00000000	     90.00000000	    -90.00000000	    -85.28362249	    865.60766902	    -39.33420404	     30.39031501	     33.68720689	     45.00000000	     45.00000000	     15.90406190	   1784.69763219	    110.36834291	     31.96959341	    -27.56809322	   2518.10814848	    165.49020154	     16.51813818	     14.00651365	    -45.00000000	     20.73045963	     35.35213605	    -16.99225690	     45.00000000	   4425.11740384	  -4206.77522391	     24.90113374	   -177.26191686	   1790.85276566	     47.81456838	     12.12737098	    -23.77646073
      5.04000000	    -90.00000000	     90.00000000	    -90.00000000	    -84.72221353	    864.64730242	    -39.41465876	     30.41665771	     33.69423686	     45.00000000	     45.00000000	     15.89026278	   1784.10581876	    110.35297183	     32.42082590	    -27.87659483	   2518.33273602	    166.25953668	     17.42351504	     14.42842215	    -45.00000000	     20.50774587	     35.28732122	    -16.93866958	     45.00000000	   4425.01747373	  -4206.59189270	     24.84931887	   -177.09360496	   1790.98237254	     47.84319863	     11.78528506	    -23.78233975
      5.05000000	    -90.00000000	     90.00000000	    -90.00000000	    -84.12122164	    863.69814274	    -39.50537993	     30.37325428	     33.73534755	     45.00000000	     45.00000000	     16.03222421	   1783.71729676	    110.21459099	     32.54105415	    -28.24777772	   2518.32381949	    166.85236721	     17.41208233	     14.26257704	    -45.00000000	     20.72099923	     35.27362883	    -16.85505863	     45.00000000	   4425.04896101	  -4206.54174662	     24.90602755	   -176.98154131	   1790.95396986	     47.89159658	     11.75416299	    -23.79434741
      5.06000000	    -90.00000000	     90.00000000	    -90.00000000	    -83.48203968	    862.77833624	    -39.59982012	     30.32043634	     33.76692494	     45.00000000	     45.00000000	     16.07179857	   1783.57245556	    110.20169133	     32.42664718	    -28.43023440	   2518.47773924	    167.26569959	     17.51116994	     14.27518265	    -45.00000000	     20.54507424	     35.29525566	    -16.78712224	     45.00000000	   4425.04655390	  -4206.44039043	     24.92165142	   -176.77814258	   1791.01283285	     47.85998057	     11.68011265	    -23.84786027
      5.07000000	    -90.00000000	     90.00000000	    -90.00000000	    -82.80855777	    861.90660876	    -39.68827422	     30.28629897	     33.80586766	     45.00000000	     45.00000000	     16.15457550	   1783.24696604	    110.13325367	     32.51587970	    -28.71000107	   2518.45378520	    167.56202844	     17.35898263	     14.20841920	    -45.00000000	     20.51249988	     35.44725048	    -16.66692864	     45.00000000	   4424.80905929	  -4206.45538413	     24.76990677	   -176.59814212	   1790.98308979	     47.81996782	     11.72206001	    -23.84793480
      5.08000000	    -90.00000000	     90.00000000	    -90.00000000	    -82.10342245	    861.09727697	    -39.75792345	     30.21831985	     33.85522253	     45.00000000	     45.00000000	     16.18745489	   1783.26140522	    110.17539473	     32.26466384	    -28.82069934	   2518.57816770	    167.69175847	     17.53525375	     14.30874838	    -45.00000000	     20.25765708	     35.29054315	    -16.54361430	     45.00000000	   4424.99341994	  -4206.16627692	     24.84832345	   -176.30441922	   1791.00202080	     47.70416761	     11.66256796	    -23.87487870
      5.09000000	    -90.00000000	     90.00000000	    -90.00000000	    -81.36604940	    860.36361808	    -39.80035530	     30.21172433	     33.86869386	     45.00000000	     45.00000000	     16.32456723	   1782.75671882	    110.04642954	     32.55550543	    -29.12251733	   2518.52185988	    167.70912249	     17.18125278	     14.15685243	    -45.00000000	     20.21982919	     35.46041285	    -16.40993122	     45.00000000	   4424.77522723	  -4206.20668062	     24.66998642	   -176.07999729	   1790.93593062	     47.60136281	     11.77062111	    -23.83007895
      5.10000000	    -90.00000000	     90.00000000	    -90.00000000	    -80.58466400	    859.70685221	    -39.81172916	     30.09861678	     33.97558435	     45.00000000	     45.00000000	     16.26691463	   1783.08821742	    110.20359480	     32.02214961	    -29.08717210	   2518.67965199	    167.54623151	     17.49438865	     14.43564858	    -45.00000000	     19.95750725	     35.27695370	    -16.23815296	     45.00000000	   4425.01685707	  -4205.83727346	     24.79258531	   -175.69476597	   1790.95520296	     47.39782214	     11.69419578	    -23.74281878
      5.11000000	    -90.00000000	     90.00000000	    -90.00000000	    -79.74755720	    859.12958860	    -39.79612250	     30.10169619	     33.99658441	     45.00000000	     45.00000000	     16.36407465	   1782.68235667	    110.11343557	     32.28323056	    -29.32554981	   2518.59924396	    167.26434787	     17.06328584	     14.37412366	    -45.00000000	     19.82278735	     35.61824070	    -16.11599512	     45.00000000	   4424.66331864	  -4205.99766218	     24.62040623	   -175.33104021	   1791.03652318	     47.12862050	     11.78750094	    -23.78445749
      5.12000000	    -90.00000000	     90.00000000	    -90.00000000	    -78.83659110	    858.62491430	    -39.76022145	     30.06066509	     34.02057689	     45.00000000	     45.00000000	     16.44929932	   1782.54330978	    110.06253864	     32.22133074	    -29.54900777	   2518.64136300	    166.82628238	     17.09058118	     14.36109815	    -45.00000000	     19.72500533	     35.54032181	    -16.08775543	     45.00000000	   4424.94199378	  -4205.77525375	     24.69000266	   -174.95825532	   1790.94640619	     46.93589460	     11.77943279	    -23.74227031
